<svg xmlns="http://www.w3.org/2000/svg" width="730" height="460" viewBox="0 0 730 460"><rect width="100%" height="100%" fill="#DDDDDD"/><path fill="#999999" d="M147.985 194.935h48.45v5.19q0 2.33-.48 3.76-.49 1.43-.97 2.4l-26.58 54.71q-.83 1.69-2.33 2.88t-4.03 1.19h-8.68l27.11-53.59q.93-1.65 1.82-3.03.9-1.39 2.02-2.65h-33.57q-1.11 0-1.94-.82-.82-.83-.82-1.94v-8.1Zm63.29 20.66-6.3-1.12q.72-5.04 2.81-8.85 2.09-3.8 5.21-6.35 3.13-2.55 7.18-3.83 4.05-1.29 8.71-1.29 4.85 0 8.75 1.39 3.91 1.38 6.67 3.83t4.24 5.74q1.48 3.3 1.48 7.13 0 3.35-.75 5.9-.75 2.54-2.16 4.43-1.4 1.9-3.49 3.2-2.08 1.31-4.7 2.19 6.3 1.99 9.41 6.06 3.1 4.07 3.1 10.23 0 5.24-1.94 9.27-1.94 4.02-5.24 6.76-3.3 2.74-7.64 4.15-4.34 1.41-9.19 1.41-5.28 0-9.21-1.22-3.93-1.21-6.84-3.59-2.91-2.37-4.95-5.82-2.03-3.44-3.49-7.95l5.29-2.18q2.08-.88 3.9-.46 1.82.41 2.64 1.96.88 1.7 1.92 3.35 1.04 1.65 2.5 2.93 1.45 1.29 3.42 2.09 1.96.8 4.68.8 3.05 0 5.33-1 2.28-.99 3.81-2.59 1.53-1.6 2.28-3.57.75-1.96.75-3.95 0-2.52-.53-4.58-.54-2.06-2.23-3.52-1.7-1.45-4.88-2.28-3.17-.82-8.51-.82v-8.54q4.41-.05 7.32-.82 2.91-.78 4.64-2.16 1.72-1.38 2.4-3.32.67-1.94.67-4.27 0-4.95-2.76-7.52-2.76-2.57-7.37-2.57-2.14 0-3.93.61-1.79.6-3.23 1.69-1.43 1.1-2.4 2.55-.97 1.46-1.45 3.2-.83 2.23-2.16 2.96t-3.76.34Zm98.55 14.4q0 9.17-1.96 15.94-1.96 6.76-5.43 11.18-3.47 4.41-8.2 6.57-4.73 2.16-10.21 2.16t-10.16-2.16q-4.68-2.16-8.12-6.57-3.45-4.42-5.39-11.18-1.94-6.77-1.94-15.94 0-9.21 1.94-15.95 1.94-6.74 5.39-11.16 3.44-4.41 8.12-6.57t10.16-2.16q5.48 0 10.21 2.16t8.2 6.57q3.47 4.42 5.43 11.16 1.96 6.74 1.96 15.95Zm-12.36 0q0-7.61-1.12-12.61-1.11-4.99-2.98-7.95-1.87-2.96-4.29-4.15-2.43-1.18-5.05-1.18-2.57 0-4.97 1.18-2.4 1.19-4.24 4.15-1.85 2.96-2.94 7.95-1.09 5-1.09 12.61 0 7.62 1.09 12.61 1.09 5 2.94 7.96 1.84 2.96 4.24 4.15 2.4 1.18 4.97 1.18 2.62 0 5.05-1.18 2.42-1.19 4.29-4.15 1.87-2.96 2.98-7.96 1.12-4.99 1.12-12.61Zm89.38 19.02-6.35 6.25-16.44-16.44-16.59 16.54-6.35-6.26 16.58-16.63-15.81-15.81 6.31-6.31 15.81 15.81 15.71-15.71 6.4 6.3-15.76 15.77 16.49 16.49Zm42-10.38h21.34v-22.94q0-3.25.44-7.18l-21.78 30.12Zm31.77 0h8.83v6.93q0 .97-.63 1.68-.63.7-1.8.7h-6.4v17.12h-10.43v-17.12h-29.58q-1.21 0-2.14-.75-.92-.75-1.16-1.87l-1.26-6.06 33.22-44.38h11.35v43.75Zm57.42-43.7-20.8 25.46-2.43 3.01q2.04-1.02 4.39-1.58 2.35-.56 5.07-.56 3.98 0 7.74 1.31 3.76 1.31 6.62 3.96 2.86 2.64 4.6 6.57 1.75 3.93 1.75 9.16 0 4.9-1.79 9.2-1.8 4.29-5.05 7.49t-7.83 5.04q-4.58 1.85-10.11 1.85-5.63 0-10.09-1.8-4.46-1.79-7.62-5.02-3.15-3.22-4.82-7.76-1.67-4.53-1.67-10.06 0-4.95 2.01-10.16 2.01-5.22 6.23-10.84l16.73-22.46q.88-1.16 2.55-1.99 1.67-.82 3.85-.82h10.67Zm-18.09 61.11q2.87 0 5.27-.97 2.4-.97 4.12-2.72 1.72-1.74 2.69-4.1.97-2.35.97-5.11 0-3.01-.92-5.41-.92-2.4-2.62-4.07-1.7-1.68-4.07-2.55-2.38-.87-5.24-.87-2.86 0-5.19.97-2.33.97-3.98 2.69t-2.57 4.07q-.92 2.36-.92 5.07 0 2.91.8 5.31.8 2.4 2.38 4.1 1.57 1.7 3.9 2.64 2.33.95 5.38.95Zm82.07-26.05q0 9.17-1.97 15.94-1.96 6.76-5.43 11.18-3.47 4.41-8.2 6.57-4.73 2.16-10.21 2.16t-10.16-2.16q-4.68-2.16-8.12-6.57-3.44-4.42-5.38-11.18-1.94-6.77-1.94-15.94 0-9.21 1.94-15.95 1.94-6.74 5.38-11.16 3.44-4.41 8.12-6.57t10.16-2.16q5.48 0 10.21 2.16t8.2 6.57q3.47 4.42 5.43 11.16 1.97 6.74 1.97 15.95Zm-12.37 0q0-7.61-1.12-12.61-1.11-4.99-2.98-7.95-1.87-2.96-4.29-4.15-2.43-1.18-5.05-1.18-2.57 0-4.97 1.18-2.4 1.19-4.24 4.15-1.84 2.96-2.94 7.95-1.09 5-1.09 12.61 0 7.62 1.09 12.61 1.1 5 2.94 7.96 1.84 2.96 4.24 4.15 2.4 1.18 4.97 1.18 2.62 0 5.05-1.18 2.42-1.19 4.29-4.15 1.87-2.96 2.98-7.96 1.12-4.99 1.12-12.61Z"/></svg>