<svg xmlns="http://www.w3.org/2000/svg" width="650" height="250" viewBox="0 0 650 250"><rect width="100%" height="100%" fill="#DDDDDD"/><path fill="#999999" d="m169.68 93.91-18.44 22.58-2.15 2.66q1.8-.9 3.89-1.39 2.08-.5 4.49-.5 3.53 0 6.86 1.16 3.33 1.16 5.87 3.51 2.54 2.34 4.09 5.82 1.54 3.49 1.54 8.13 0 4.34-1.59 8.15-1.59 3.8-4.47 6.64t-6.94 4.47q-4.07 1.64-8.97 1.64-4.99 0-8.94-1.59-3.96-1.59-6.75-4.45-2.8-2.86-4.28-6.88-1.49-4.02-1.49-8.93 0-4.38 1.79-9 1.78-4.63 5.52-9.62l14.84-19.9q.77-1.04 2.26-1.77 1.48-.73 3.41-.73h9.46Zm-16.03 54.18q2.53 0 4.66-.86 2.13-.86 3.66-2.41 1.52-1.54 2.38-3.63.86-2.09.86-4.54 0-2.66-.81-4.79-.82-2.13-2.33-3.61-1.5-1.49-3.61-2.26-2.11-.77-4.64-.77-2.54 0-4.6.86-2.07.86-3.53 2.38-1.46 1.53-2.28 3.61-.82 2.09-.82 4.5 0 2.58.71 4.71.71 2.12 2.11 3.63 1.4 1.5 3.46 2.34 2.07.84 4.78.84Zm44.67-44.55-2.19 12.95q2.06-.43 3.96-.63 1.89-.19 3.65-.19 4.9 0 8.64 1.46t6.28 4.04q2.54 2.58 3.83 6.05 1.29 3.46 1.29 7.46 0 4.94-1.74 9.03-1.74 4.08-4.84 6.98-3.1 2.91-7.33 4.5-4.24 1.59-9.23 1.59-2.92 0-5.54-.6-2.63-.61-4.93-1.62-2.3-1.01-4.25-2.32-1.96-1.31-3.51-2.77l3.27-4.52q1.03-1.46 2.71-1.46 1.07 0 2.19.69 1.12.69 2.56 1.5 1.44.82 3.4 1.51 1.95.69 4.71.69 2.92 0 5.16-.95 2.23-.95 3.72-2.64 1.48-1.7 2.23-4.05.75-2.34.75-5.09 0-5.08-2.94-7.93-2.95-2.86-8.71-2.86-4.43 0-9.07 1.63l-6.62-1.89 5.16-30.19h30.7v4.52q0 2.28-1.42 3.69-1.42 1.42-4.82 1.42h-17.07ZM276.28 125q0 8.13-1.74 14.13-1.74 5.99-4.82 9.91-3.07 3.91-7.26 5.82-4.2 1.92-9.05 1.92-4.86 0-9.01-1.92-4.15-1.91-7.21-5.82-3.05-3.92-4.77-9.91-1.72-6-1.72-14.13 0-8.17 1.72-14.15 1.72-5.97 4.77-9.89 3.06-3.91 7.21-5.82 4.15-1.92 9.01-1.92 4.85 0 9.05 1.92 4.19 1.91 7.26 5.82 3.08 3.92 4.82 9.89 1.74 5.98 1.74 14.15Zm-10.96 0q0-6.75-.99-11.18t-2.65-7.05q-1.65-2.62-3.8-3.68-2.15-1.05-4.47-1.05-2.28 0-4.41 1.05-2.13 1.06-3.76 3.68-1.64 2.62-2.61 7.05-.96 4.43-.96 11.18t.96 11.18q.97 4.43 2.61 7.05 1.63 2.63 3.76 3.68 2.13 1.05 4.41 1.05 2.32 0 4.47-1.05t3.8-3.68q1.66-2.62 2.65-7.05t.99-11.18Zm79.25 16.86-5.64 5.54-14.57-14.57-14.71 14.66-5.63-5.55 14.7-14.75-14.02-14.01 5.59-5.59 14.02 14.01 13.93-13.93 5.68 5.59-13.97 13.98 14.62 14.62Zm51.77 4.34h15.95q1.72 0 2.73.97 1.01.96 1.01 2.56v6.36h-42.65v-3.53q0-1.07.45-2.25.45-1.19 1.44-2.13l18.88-18.92q2.36-2.41 4.23-4.6 1.87-2.2 3.12-4.35 1.24-2.15 1.91-4.36.67-2.22.67-4.67 0-2.23-.65-3.93-.64-1.7-1.82-2.86-1.19-1.16-2.84-1.74-1.66-.58-3.72-.58-1.89 0-3.51.54-1.61.53-2.86 1.5-1.24.97-2.1 2.26-.86 1.29-1.29 2.84-.73 1.97-1.9 2.62-1.16.64-3.35.3l-5.59-.99q.65-4.47 2.49-7.85 1.85-3.37 4.63-5.63 2.77-2.26 6.36-3.4 3.59-1.14 7.72-1.14 4.3 0 7.87 1.27 3.57 1.27 6.1 3.59 2.54 2.32 3.96 5.59t1.42 7.27q0 3.44-1.01 6.36-1.01 2.93-2.71 5.59-1.7 2.67-3.98 5.16-2.28 2.5-4.77 5.08l-14.02 14.32q2.02-.61 4.02-.93 2-.32 3.81-.32Zm43.3-42.66-2.19 12.95q2.06-.43 3.95-.63 1.89-.19 3.66-.19 4.9 0 8.64 1.46t6.28 4.04q2.54 2.58 3.82 6.05 1.29 3.46 1.29 7.46 0 4.94-1.74 9.03-1.74 4.08-4.83 6.98-3.1 2.91-7.34 4.5-4.23 1.59-9.22 1.59-2.92 0-5.55-.6-2.62-.61-4.92-1.62-2.3-1.01-4.26-2.32-1.95-1.31-3.5-2.77l3.27-4.52q1.03-1.46 2.71-1.46 1.07 0 2.19.69 1.12.69 2.56 1.5 1.44.82 3.39 1.51 1.96.69 4.71.69 2.93 0 5.16-.95 2.24-.95 3.72-2.64 1.49-1.7 2.24-4.05.75-2.34.75-5.09 0-5.08-2.94-7.93-2.95-2.86-8.71-2.86-4.43 0-9.08 1.63l-6.62-1.89 5.16-30.19h30.7v4.52q0 2.28-1.41 3.69-1.42 1.42-4.82 1.42h-17.07ZM517.6 125q0 8.13-1.74 14.13-1.75 5.99-4.82 9.91-3.07 3.91-7.27 5.82-4.19 1.92-9.05 1.92t-9.01-1.92q-4.15-1.91-7.2-5.82-3.05-3.92-4.77-9.91-1.72-6-1.72-14.13 0-8.17 1.72-14.15 1.72-5.97 4.77-9.89 3.05-3.91 7.2-5.82 4.15-1.92 9.01-1.92 4.86 0 9.05 1.92 4.2 1.91 7.27 5.82 3.07 3.92 4.82 9.89 1.74 5.98 1.74 14.15Zm-10.97 0q0-6.75-.99-11.18t-2.64-7.05q-1.66-2.62-3.81-3.68-2.15-1.05-4.47-1.05-2.28 0-4.41 1.05-2.12 1.06-3.76 3.68-1.63 2.62-2.6 7.05-.97 4.43-.97 11.18t.97 11.18q.97 4.43 2.6 7.05 1.64 2.63 3.76 3.68 2.13 1.05 4.41 1.05 2.32 0 4.47-1.05t3.81-3.68q1.65-2.62 2.64-7.05.99-4.43.99-11.18Z"/></svg>