<svg xmlns="http://www.w3.org/2000/svg" width="730" height="455" viewBox="0 0 730 455"><rect width="100%" height="100%" fill="#DDDDDD"/><path fill="#999999" d="M149.465 192.435h48.45v5.19q0 2.33-.48 3.76-.49 1.43-.97 2.4l-26.58 54.71q-.83 1.69-2.33 2.88t-4.03 1.19h-8.68l27.11-53.59q.93-1.65 1.82-3.03.9-1.39 2.02-2.65h-33.57q-1.11 0-1.94-.82-.82-.83-.82-1.94v-8.1Zm63.29 20.66-6.3-1.12q.72-5.04 2.81-8.85 2.09-3.8 5.21-6.35 3.13-2.55 7.18-3.83 4.05-1.29 8.71-1.29 4.85 0 8.75 1.39 3.91 1.38 6.67 3.83t4.24 5.74q1.48 3.3 1.48 7.13 0 3.35-.75 5.9-.75 2.54-2.16 4.43-1.4 1.9-3.49 3.2-2.08 1.31-4.7 2.19 6.3 1.99 9.41 6.06 3.1 4.07 3.1 10.23 0 5.24-1.94 9.27-1.94 4.02-5.24 6.76-3.3 2.74-7.64 4.15-4.34 1.41-9.19 1.41-5.28 0-9.21-1.22-3.93-1.21-6.84-3.59-2.91-2.37-4.95-5.82-2.03-3.44-3.49-7.95l5.29-2.18q2.08-.88 3.9-.46 1.82.41 2.64 1.96.88 1.7 1.92 3.35 1.04 1.65 2.5 2.93 1.45 1.29 3.42 2.09 1.96.8 4.68.8 3.05 0 5.33-1 2.28-.99 3.81-2.59 1.53-1.6 2.28-3.57.75-1.96.75-3.95 0-2.52-.53-4.58-.54-2.06-2.23-3.52-1.7-1.45-4.88-2.28-3.17-.82-8.51-.82v-8.54q4.41-.05 7.32-.82 2.91-.78 4.64-2.16 1.72-1.38 2.4-3.32.67-1.94.67-4.27 0-4.95-2.76-7.52-2.76-2.57-7.37-2.57-2.14 0-3.93.61-1.79.6-3.23 1.69-1.43 1.1-2.4 2.55-.97 1.46-1.45 3.2-.83 2.23-2.16 2.96t-3.76.34Zm98.55 14.4q0 9.17-1.96 15.94-1.96 6.76-5.43 11.18-3.47 4.41-8.2 6.57-4.73 2.16-10.21 2.16t-10.16-2.16q-4.68-2.16-8.12-6.57-3.45-4.42-5.39-11.18-1.94-6.77-1.94-15.94 0-9.21 1.94-15.95 1.94-6.74 5.39-11.16 3.44-4.41 8.12-6.57t10.16-2.16q5.48 0 10.21 2.16t8.2 6.57q3.47 4.42 5.43 11.16 1.96 6.74 1.96 15.95Zm-12.36 0q0-7.61-1.12-12.61-1.11-4.99-2.98-7.95-1.87-2.96-4.29-4.15-2.43-1.18-5.05-1.18-2.57 0-4.97 1.18-2.4 1.19-4.24 4.15-1.85 2.96-2.94 7.95-1.09 5-1.09 12.61 0 7.62 1.09 12.61 1.09 5 2.94 7.96 1.84 2.96 4.24 4.15 2.4 1.18 4.97 1.18 2.62 0 5.05-1.18 2.42-1.19 4.29-4.15 1.87-2.96 2.98-7.96 1.12-4.99 1.12-12.61Zm89.38 19.02-6.35 6.25-16.44-16.44-16.59 16.54-6.35-6.26 16.58-16.63-15.81-15.81 6.31-6.31 15.81 15.81 15.71-15.71 6.4 6.3-15.76 15.77 16.49 16.49Zm42-10.38h21.34v-22.94q0-3.25.44-7.18l-21.78 30.12Zm31.77 0h8.83v6.93q0 .97-.63 1.68-.63.7-1.8.7h-6.4v17.12h-10.43v-17.12h-29.58q-1.21 0-2.14-.75-.92-.75-1.16-1.87l-1.26-6.06 33.22-44.38h11.35v43.75Zm33.47-32.84-2.48 14.6q2.33-.48 4.46-.7 2.14-.22 4.13-.22 5.53 0 9.75 1.65 4.21 1.65 7.08 4.56 2.86 2.91 4.31 6.81 1.46 3.91 1.46 8.42 0 5.57-1.97 10.18-1.96 4.61-5.45 7.88-3.49 3.28-8.27 5.07-4.78 1.8-10.41 1.8-3.29 0-6.25-.68t-5.56-1.82q-2.59-1.14-4.8-2.62-2.2-1.48-3.95-3.13l3.69-5.09q1.16-1.65 3.05-1.65 1.21 0 2.48.78 1.26.77 2.88 1.69 1.63.92 3.83 1.7 2.21.78 5.31.78 3.3 0 5.82-1.07 2.53-1.07 4.2-2.98 1.67-1.92 2.52-4.56.85-2.65.85-5.75 0-5.72-3.32-8.95-3.32-3.22-9.82-3.22-5 0-10.24 1.84l-7.47-2.13 5.82-34.05h34.63v5.09q0 2.57-1.6 4.17t-5.43 1.6h-19.25Zm56.26 0-2.48 14.6q2.33-.48 4.46-.7 2.14-.22 4.13-.22 5.53 0 9.75 1.65 4.21 1.65 7.08 4.56 2.86 2.91 4.31 6.81 1.46 3.91 1.46 8.42 0 5.57-1.97 10.18-1.96 4.61-5.45 7.88-3.49 3.28-8.27 5.07-4.78 1.8-10.41 1.8-3.29 0-6.25-.68t-5.56-1.82q-2.59-1.14-4.8-2.62-2.2-1.48-3.95-3.13l3.69-5.09q1.16-1.65 3.05-1.65 1.21 0 2.48.78 1.26.77 2.88 1.69 1.63.92 3.83 1.7 2.21.78 5.31.78 3.3 0 5.82-1.07 2.53-1.07 4.2-2.98 1.67-1.92 2.52-4.56.85-2.65.85-5.75 0-5.72-3.32-8.95-3.32-3.22-9.82-3.22-5 0-10.24 1.84l-7.47-2.13 5.82-34.05h34.63v5.09q0 2.57-1.6 4.17t-5.43 1.6h-19.25Z"/></svg>